<svg xmlns="http://www.w3.org/2000/svg" width="133" height="425" viewBox="0 0 133 425">
  <g id="SideBar" transform="translate(203 -74.901)">
    <g id="Group_1064" data-name="Group 1064" transform="translate(-203 261.905)">
      <g id="Component_26_4" data-name="Component 26 – 4" transform="translate(0 -0.004)">
        <rect id="Rectangle_10016" data-name="Rectangle 10016" width="70" height="119" fill="#fff"/>
        <text id="Apply" transform="translate(28 60) rotate(90)" fill="#042482" font-size="18" font-family="Montserrat-Medium, Montserrat" font-weight="500"><tspan x="-26" y="0">Apply</tspan></text>
      </g>
    </g>
    <g id="Group_1066" data-name="Group 1066" transform="translate(-203 143.284)">
      <g id="Component_25_4" data-name="Component 25 – 4" transform="translate(0 -0.383)">
        <rect id="Rectangle_10016-2" data-name="Rectangle 10016" width="70" height="119" fill="#fff"/>
        <text id="Enquire" transform="translate(28 60) rotate(90)" fill="#042482" font-size="18" font-family="Montserrat-Medium, Montserrat" font-weight="500"><tspan x="-36" y="0">Enquire</tspan></text>
      </g>
    </g>
    <g id="Group_1065" data-name="Group 1065" transform="translate(-203 380.526)">
      <g id="Component_27_4" data-name="Component 27 – 4" transform="translate(0 0.375)">
        <path id="Rectangle_10017" data-name="Rectangle 10017" d="M0,0H70a0,0,0,0,1,0,0V119a0,0,0,0,1,0,0H5a5,5,0,0,1-5-5V0A0,0,0,0,1,0,0Z" fill="#fff"/>
        <text id="Visit" transform="translate(28 60) rotate(90)" fill="#042482" font-size="18" font-family="Montserrat-Medium, Montserrat" font-weight="500"><tspan x="-19" y="0">Visit</tspan></text>
      </g>
    </g>
    <g id="Component_24_4" data-name="Component 24 – 4" transform="translate(-203 74.901)">
      <path id="Rectangle_40" data-name="Rectangle 40" d="M5,0H70a0,0,0,0,1,0,0V68a0,0,0,0,1,0,0H0a0,0,0,0,1,0,0V5A5,5,0,0,1,5,0Z" fill="#fff"/>
      <g id="vuesax_outline_search-normal" data-name="vuesax/outline/search-normal" transform="translate(-405 -166)">
        <g id="search-normal">
          <path id="Vector" d="M10.25,20.5A10.25,10.25,0,1,1,20.5,10.25,10.264,10.264,0,0,1,10.25,20.5Zm0-19A8.75,8.75,0,1,0,19,10.25,8.76,8.76,0,0,0,10.25,1.5Z" transform="translate(429.25 189.25)" fill="#042482"/>
          <path id="Vector-2" data-name="Vector" d="M2.748,3.5a.742.742,0,0,1-.53-.22l-2-2A.75.75,0,0,1,1.278.218l2,2a.754.754,0,0,1,0,1.06A.742.742,0,0,1,2.748,3.5Z" transform="translate(448.253 208.253)" fill="#042482"/>
          <path id="Vector-3" data-name="Vector" d="M0,0H24V24H0Z" transform="translate(428 188)" fill="none" opacity="0"/>
        </g>
      </g>
      <text id="Search" transform="translate(70 40)" fill="#042482" font-size="18" font-family="Montserrat-Medium, Montserrat" font-weight="500"><tspan x="0" y="0">Search</tspan></text>
    </g>
  </g>
</svg>
