<svg id="Layer_1" data-name="Layer 1" xmlns="http://www.w3.org/2000/svg" viewBox="0 0 24 24"><defs><style>.cls-1{fill:#fff;}.cls-2{fill:none;}</style></defs><g id="vuesax_outline_search-normal" data-name="vuesax outline search-normal"><g id="search-normal"><path id="Vector" class="cls-1" d="M11.5,21.75A10.25,10.25,0,1,1,21.75,11.5,10.25,10.25,0,0,1,11.5,21.75Zm0-19a8.75,8.75,0,1,0,8.75,8.75A8.75,8.75,0,0,0,11.5,2.75Z"/><path id="Vector-2" class="cls-1" d="M23,23.75a.75.75,0,0,1-.53-.22l-2-2a.75.75,0,0,1,1.06-1.06l2,2A.75.75,0,0,1,23,23.75Z"/><path id="Vector-3" class="cls-2" d="M0,0H24V24H0Z"/></g></g></svg>